<?xml version="1.0" encoding="UTF-8" standalone="no"?>
<!-- Created with Inkscape (http://www.inkscape.org/) -->
<svg
   xmlns:dc="http://purl.org/dc/elements/1.1/"
   xmlns:cc="http://creativecommons.org/ns#"
   xmlns:rdf="http://www.w3.org/1999/02/22-rdf-syntax-ns#"
   xmlns:svg="http://www.w3.org/2000/svg"
   xmlns="http://www.w3.org/2000/svg"
   xmlns:sodipodi="http://sodipodi.sourceforge.net/DTD/sodipodi-0.dtd"
   xmlns:inkscape="http://www.inkscape.org/namespaces/inkscape"
   id="svg2"
   sodipodi:version="0.32"
   inkscape:version="0.46"
   width="430"
   height="500"
   version="1.0"
   sodipodi:docname="Map Benelux.svg"
   inkscape:output_extension="org.inkscape.output.svg.inkscape"
   style="display:inline;enable-background:new">
  <metadata
     id="metadata7">
    <rdf:RDF>
      <cc:Work
         rdf:about="">
        <dc:format>image/svg+xml</dc:format>
        <dc:type
           rdf:resource="http://purl.org/dc/dcmitype/StillImage" />
      </cc:Work>
    </rdf:RDF>
  </metadata>
  <defs
     id="defs5">
    <inkscape:perspective
       sodipodi:type="inkscape:persp3d"
       inkscape:vp_x="0 : 526.18109 : 1"
       inkscape:vp_y="0 : 1000 : 0"
       inkscape:vp_z="744.09448 : 526.18109 : 1"
       inkscape:persp3d-origin="372.04724 : 350.78739 : 1"
       id="perspective9" />
    <filter
       inkscape:collect="always"
       id="filter3202">
      <feBlend
         inkscape:collect="always"
         mode="screen"
         in2="BackgroundImage"
         id="feBlend3204" />
    </filter>
  </defs>
  <sodipodi:namedview
     inkscape:window-height="721"
     inkscape:window-width="1024"
     inkscape:pageshadow="2"
     inkscape:pageopacity="0.0"
     guidetolerance="10.0"
     gridtolerance="10.0"
     objecttolerance="10.0"
     borderopacity="1.0"
     bordercolor="#666666"
     pagecolor="#ffffff"
     id="base"
     showgrid="false"
     inkscape:zoom="11.313708"
     inkscape:cx="274.27704"
     inkscape:cy="324.97189"
     inkscape:window-x="-4"
     inkscape:window-y="-4"
     inkscape:current-layer="layer10" />
  <g
     inkscape:groupmode="layer"
     id="layer8"
     inkscape:label="Netherlands">
    <g
       inkscape:groupmode="layer"
       id="layer10"
       inkscape:label="Map NE">
      <g
         id="g3244">
        <path
           id="path2439"
           d="M 198.75,107 L 191.5,115.1875 L 191.5,124.5 L 181.0625,124.5 L 181.03125,136.46875 L 169.1875,148.5 L 149.5,148.46875 L 149.5,169.5 L 159.5,169.5 L 159.5,181.6875 L 136.46875,193.4375 L 136.5,171.5 L 128.4375,171.5 L 128.46875,198.125 L 382.96875,198.125 L 388.46875,182.5625 L 388.5,170.4375 L 377.71875,158 L 388.46875,146.96875 L 388.46875,107 L 265.5,107 L 265.5,115.59375 L 244.4375,136.5 L 221.5,136.5 L 221.5,114.53125 L 228.0625,107 L 198.75,107 z"
           style="opacity:1;fill:#ffffff;fill-opacity:1;fill-rule:nonzero;stroke:none;stroke-width:1;stroke-linecap:butt;stroke-linejoin:miter;marker:none;marker-start:none;marker-mid:none;marker-end:none;stroke-miterlimit:4;stroke-dasharray:none;stroke-dashoffset:0;stroke-opacity:1;visibility:visible;display:inline;overflow:visible;enable-background:accumulate" />
        <path
           sodipodi:nodetypes="ccccccccccccccccccccccccccccccc"
           id="path3238"
           d="M 360.03125,14.5 L 349.4375,25.46875 L 329.5,35.5 L 327.03125,35.46875 L 327,15.5 L 316.03125,25.5 L 296.125,25.5 L 276.3125,35.40625 L 265.5,47.59375 L 265.5,107 L 228.0625,107 L 231.125,103.5 L 221.5,103.5 L 221.5,101.96875 L 242.5,81.03125 L 242.5,70 L 232.03125,59.5 L 212.15625,59.5 L 202,81.28125 L 202.03125,103.3125 L 198.75,107 L 388.46875,107 L 388.46875,102 L 398.46875,102 L 398.46875,69.03125 L 409.125,58.46875 L 399.53125,49.03125 L 389.03125,59.09375 L 378,59.03125 L 378,14.5 L 360.03125,14.5 z"
           style="opacity:1;fill:#ae1c28;fill-opacity:1;fill-rule:nonzero;stroke:none;stroke-width:1;stroke-linecap:butt;stroke-linejoin:miter;marker:none;marker-start:none;marker-mid:none;marker-end:none;stroke-miterlimit:4;stroke-dasharray:none;stroke-dashoffset:0;stroke-opacity:1;visibility:visible;display:inline;overflow:visible;enable-background:accumulate" />
        <path
           id="path2437"
           d="M 128.46875,198.125 L 128.46875,214.5 L 138.59375,214.5 L 148.5,224.46875 L 151.96875,226.5 L 180.4375,236.375 L 180.5,247 L 190.90625,247.03125 L 201.9375,236 L 213.71875,236 C 219.83176,243.49761 224.79173,249.89172 231.5,257.375 C 238.2592,264.91507 246.30983,272.95358 254.4375,280.9375 L 254.46875,291.8125 L 273.9375,279.625 L 273.96875,225.03125 C 273.96874,225.03124 289.91275,216.54342 297.9375,212.90625 C 305.96224,209.26907 328.5625,201.21875 328.5625,201.21875 L 336.75,213.5 L 377.53125,213.5 L 382.96875,198.125 L 128.46875,198.125 z"
           style="opacity:1;fill:#21468b;fill-opacity:1;fill-rule:nonzero;stroke:none;stroke-width:1;stroke-linecap:butt;stroke-linejoin:miter;marker:none;marker-start:none;marker-mid:none;marker-end:none;stroke-miterlimit:4;stroke-dasharray:none;stroke-dashoffset:0;stroke-opacity:1;visibility:visible;display:inline;overflow:visible;enable-background:accumulate" />
        <path
           style="opacity:1;fill:none;fill-opacity:1;fill-rule:nonzero;stroke:#808080;stroke-width:1;stroke-linecap:butt;stroke-linejoin:miter;marker:none;marker-start:none;marker-mid:none;marker-end:none;stroke-miterlimit:4;stroke-dasharray:none;stroke-dashoffset:0;stroke-opacity:1;visibility:visible;display:inline;overflow:visible;enable-background:accumulate"
           d="M 149.49246,148.48083 L 149.49692,169.50249 L 159.49294,169.50683 L 159.49951,181.68689 L 136.45989,193.43709 L 136.51422,171.49767 L 128.44603,171.49282 L 128.4546,214.49759 L 138.58765,214.50308 L 148.50047,224.48138 L 151.98159,226.51093 L 180.45012,236.37963 L 180.49406,246.99809 L 190.89186,247.02369 L 201.94119,236.01105 L 213.72344,235.99645 C 219.83644,243.49405 224.80563,249.90212 231.5139,257.3854 C 238.2731,264.92548 246.30496,272.96272 254.43263,280.94664 L 254.45782,291.81639 L 273.95304,279.62269 L 273.95812,225.03721 C 273.95812,225.03721 289.90353,216.54653 297.92828,212.90936 C 305.95302,209.27218 328.55658,201.22807 328.55658,201.22807 L 336.75659,213.50777 L 377.51868,213.49861 L 388.467,182.55941 L 388.48519,170.42899 L 377.72164,157.98494 L 388.48106,146.96956 L 388.47314,101.99049 L 398.45558,102.01557 L 398.46869,69.020189 L 409.13244,58.477386 L 399.5248,49.024455 L 389.01764,59.098887 L 378.00094,59.034516 L 378.00052,14.501293 L 360.02484,14.510931 L 349.4285,25.459007 L 329.48996,35.50199 L 327.02228,35.470199 L 326.98549,15.496895 L 316.03171,25.499086 L 296.11723,25.490475 L 276.31607,35.409603 L 265.50818,47.59558 L 265.50019,115.60715 L 244.428,136.4955 L 221.51479,136.49589 L 221.50086,114.54003 L 231.12738,103.50156 L 221.51441,103.49968 L 221.4989,101.98359 L 242.49882,81.029794 L 242.49988,70.000923 L 232.03274,59.502717 L 212.14719,59.498292 L 201.9953,81.280921 L 202.02038,103.31828 L 191.49749,115.19725 L 191.50003,124.49032 L 181.04919,124.50869 L 181.03388,136.47143 L 169.17709,148.49355 L 149.49246,148.48083 z"
           id="path2435"
           sodipodi:nodetypes="cccccccccccccccczcccczccccccccccccccccccccccccccccccccccccccccccc" />
      </g>
    </g>
    <g
       inkscape:groupmode="layer"
       id="layer9"
       inkscape:label="Labels NE"
       style="display:inline">
      <text
         xml:space="preserve"
         style="display:inline;enable-background:new;font-size:32px;font-style:normal;font-weight:normal;line-height:100%;fill:#000000;fill-opacity:1;stroke:none;stroke-width:1px;stroke-linecap:butt;stroke-linejoin:miter;stroke-opacity:1;font-family:Bitstream Vera Sans"
         x="269.65659"
         y="158.16702"
         id="text2426"
         sodipodi:linespacing="100%"><tspan
           sodipodi:role="line"
           id="tspan2428"
           x="269.65659"
           y="158.16702"
           style="font-size:48px;font-style:normal;font-variant:normal;font-weight:normal;font-stretch:normal;text-align:start;line-height:100%;writing-mode:lr-tb;text-anchor:start;font-family:DejaVu Sans;-inkscape-font-specification:DejaVu Sans">Ne</tspan></text>
      <text
         xml:space="preserve"
         style="font-size:16px;font-style:normal;font-variant:normal;font-weight:normal;font-stretch:normal;text-align:center;line-height:100%;writing-mode:lr-tb;text-anchor:middle;fill:#000000;fill-opacity:1;stroke:none;stroke-width:1px;stroke-linecap:butt;stroke-linejoin:miter;stroke-opacity:1;display:inline;enable-background:new;font-family:DejaVu Sans;-inkscape-font-specification:DejaVu Sans"
         x="302.84827"
         y="183.1207"
         id="text2471"
         sodipodi:linespacing="100%"><tspan
           sodipodi:role="line"
           x="302.84827"
           y="183.1207"
           id="tspan2477">Nederland</tspan></text>
    </g>
  </g>
  <g
     inkscape:groupmode="layer"
     id="layer3"
     inkscape:label="Luxembourg">
    <g
       inkscape:groupmode="layer"
       id="layer4"
       inkscape:label="Map LUX"
       style="display:inline">
      <g
         id="g3229">
        <path
           id="path3212"
           d="M 217.4375,450.96875 L 213.6875,468.15625 L 253.28125,480.46875 L 264.4375,480.5 L 264.46875,450.96875 L 217.4375,450.96875 z"
           style="opacity:1;fill:#00a3dd;fill-opacity:1;fill-rule:nonzero;stroke:none;stroke-width:1;stroke-linecap:butt;stroke-linejoin:miter;marker:none;marker-start:none;marker-mid:none;marker-end:none;stroke-miterlimit:4;stroke-dasharray:none;stroke-dashoffset:0;stroke-opacity:1;visibility:visible;display:inline;overflow:visible;enable-background:accumulate" />
        <path
           sodipodi:nodetypes="cssccccccc"
           id="path3216"
           d="M 232.5,392.5 C 232.5,392.5 225.45061,398.81528 222.59375,401.96875 C 221.75208,402.8978 220.61704,404.28029 219.43455,405.76842 C 216.6033,409.33144 213.5,413.5 213.5,413.5 L 213.5,422 L 250.875,422 L 243.5,413.78125 L 243.46875,402.40625 L 233.78125,392.5 L 232.5,392.5 z"
           style="opacity:1;fill:#ef2b2d;fill-opacity:1;fill-rule:nonzero;stroke:none;stroke-width:1;stroke-linecap:butt;stroke-linejoin:miter;marker:none;marker-start:none;marker-mid:none;marker-end:none;stroke-miterlimit:4;stroke-dasharray:none;stroke-dashoffset:0;stroke-opacity:1;visibility:visible;display:inline;overflow:visible;enable-background:accumulate" />
        <path
           id="path3214"
           d="M 213.5,422 L 213.5,437.5625 L 217.65625,450 L 217.4375,451 L 264.46875,451 L 264.5,437.1875 L 250.875,422 L 213.5,422 z"
           style="opacity:1;fill:#ffffff;fill-opacity:1;fill-rule:nonzero;stroke:none;stroke-width:1;stroke-linecap:butt;stroke-linejoin:miter;marker:none;marker-start:none;marker-mid:none;marker-end:none;stroke-miterlimit:4;stroke-dasharray:none;stroke-dashoffset:0;stroke-opacity:1;visibility:visible;display:inline;overflow:visible;enable-background:accumulate" />
        <path
           style="opacity:1;fill:none;fill-opacity:1;fill-rule:nonzero;stroke:#808080;stroke-width:1;stroke-linecap:butt;stroke-linejoin:miter;marker:none;marker-start:none;marker-mid:none;marker-end:none;stroke-miterlimit:4;stroke-dasharray:none;stroke-dashoffset:0;stroke-opacity:1;visibility:visible;display:inline;overflow:visible;enable-background:accumulate"
           d="M 243.47534,402.41944 L 233.77915,392.49596 L 232.48706,392.51062 C 232.48706,392.51062 225.44125,398.80978 222.58439,401.96325 C 219.72752,405.11673 213.49505,413.49097 213.49505,413.49097 L 213.50312,437.557 L 217.64687,450.01166 L 213.69078,468.15329 L 253.27612,480.48248 L 264.45191,480.51378 L 264.50401,437.18335 L 243.48777,413.78427 L 243.47534,402.41944 z"
           id="path3202"
           sodipodi:nodetypes="ccczccccccccc" />
      </g>
    </g>
    <g
       inkscape:groupmode="layer"
       id="layer5"
       inkscape:label="Labels LUX"
       style="display:inline">
      <text
         xml:space="preserve"
         style="font-size:16px;font-style:normal;font-variant:normal;font-weight:normal;font-stretch:normal;text-align:center;line-height:100%;writing-mode:lr-tb;text-anchor:middle;fill:#000000;fill-opacity:1;stroke:none;stroke-width:1px;stroke-linecap:butt;stroke-linejoin:miter;stroke-opacity:1;font-family:DejaVu Sans;-inkscape-font-specification:DejaVu Sans"
         x="316.75"
         y="399"
         id="text2430"
         sodipodi:linespacing="100%"><tspan
           sodipodi:role="line"
           id="tspan2432"
           x="316.75"
           y="399">Lëtzebuerg</tspan><tspan
           sodipodi:role="line"
           x="316.75"
           y="415"
           id="tspan2434">Luxembourg</tspan><tspan
           sodipodi:role="line"
           x="316.75"
           y="431"
           id="tspan2436">Luxemburg</tspan></text>
      <text
         xml:space="preserve"
         style="font-size:32px;font-style:normal;font-weight:normal;line-height:100%;fill:#000000;fill-opacity:1;stroke:none;stroke-width:1px;stroke-linecap:butt;stroke-linejoin:miter;stroke-opacity:1;display:inline;enable-background:new;font-family:Bitstream Vera Sans"
         x="273.63281"
         y="480.40625"
         id="text2438"
         sodipodi:linespacing="100%"><tspan
           sodipodi:role="line"
           id="tspan2440"
           x="273.63281"
           y="480.40625"
           style="font-size:48px;font-style:normal;font-variant:normal;font-weight:normal;font-stretch:normal;text-align:start;line-height:100%;writing-mode:lr-tb;text-anchor:start;font-family:DejaVu Sans;-inkscape-font-specification:DejaVu Sans">Lux</tspan></text>
    </g>
  </g>
  <g
     inkscape:groupmode="layer"
     id="layer2"
     inkscape:label="Belgium"
     style="display:inline">
    <g
       inkscape:groupmode="layer"
       id="layer1"
       inkscape:label="Map BE"
       style="display:inline">
      <g
         id="g2416">
        <path
           id="path3196"
           d="M 56.1875,214.5 L 44.71875,228.4375 L 35.4375,217.53125 L 35.46875,226.78125 L 14.5,237.5 L 14.53125,270.78125 L 24.5625,280.21875 L 24.53125,290.5 L 45.5,290.5 L 45.53125,313.5 L 67.0625,313.5 L 67,325.96875 L 76.96875,347.96875 L 93,348.0625 L 93,247.5 L 85.4375,247.5 L 85.40625,237.5625 L 75.71875,227.53125 L 64.46875,227.65625 L 64.4375,214.53125 L 56.1875,214.5 z"
           style="opacity:1;fill:#000000;fill-opacity:1;fill-rule:nonzero;stroke:none;stroke-width:1;stroke-linecap:butt;stroke-linejoin:miter;marker:none;marker-start:none;marker-mid:none;marker-end:none;stroke-miterlimit:4;stroke-dasharray:none;stroke-dashoffset:0;stroke-opacity:1;visibility:visible;display:inline;overflow:visible;enable-background:accumulate" />
        <path
           id="path3178"
           d="M 140,226.46875 L 129.46875,237.03125 L 129.5,247.46875 L 93,247.5 L 93,348.0625 L 108.9375,348.125 L 108.96875,382.03125 L 98.875,392.71875 L 109.0625,402.75 L 129,402.65625 L 129,392.125 L 140.9375,392.21875 L 140.96875,403.875 L 150.96875,414.03125 L 150.96875,425.96875 L 162,437.09375 L 162,447 L 169.5,447 L 173.53125,451.3125 L 173.53125,233.96875 L 151.96875,226.5 L 140,226.46875 z"
           style="opacity:1;fill:#ffde00;fill-opacity:1;fill-rule:nonzero;stroke:none;stroke-width:1;stroke-linecap:butt;stroke-linejoin:miter;marker:none;marker-start:none;marker-mid:none;marker-end:none;stroke-miterlimit:4;stroke-dasharray:none;stroke-dashoffset:0;stroke-opacity:1;visibility:visible;display:inline;overflow:visible;enable-background:accumulate" />
        <path
           id="path3207"
           d="M 173.53125,233.96875 L 173.53125,451.3125 L 191.5,470.53125 L 191.5,479.53125 L 201.40625,469.5 L 213.40625,469.5 L 217.65625,450 L 213.5,437.5625 L 213.5,413.5 C 213.5,413.5 219.73687,405.12222 222.59375,401.96875 C 225.45061,398.81528 232.5,392.5 232.5,392.5 L 243.53125,392.53125 L 243.53125,368.53125 L 253.5625,368.5625 L 253.5625,349.53125 L 242.46875,349.53125 L 254.53125,325 L 254.4375,280.9375 C 246.30983,272.95358 238.2592,264.91507 231.5,257.375 C 224.79173,249.89172 219.83176,243.49761 213.71875,236 L 201.9375,236 L 190.90625,247.03125 L 180.5,247 L 180.4375,236.375 L 173.53125,233.96875 z"
           style="opacity:1;fill:#ff0000;fill-opacity:1;fill-rule:nonzero;stroke:none;stroke-width:1;stroke-linecap:butt;stroke-linejoin:miter;marker:none;marker-start:none;marker-mid:none;marker-end:none;stroke-miterlimit:4;stroke-dasharray:none;stroke-dashoffset:0;stroke-opacity:1;visibility:visible;display:inline;overflow:visible;filter:url(#filter3202);enable-background:accumulate" />
        <path
           sodipodi:nodetypes="ccccccccccccccccccczcccccccczccccccccccccccccccccccccccccc"
           id="path3184"
           d="M 14.507169,237.49697 L 35.468213,226.78408 L 35.446928,217.54376 L 44.72258,228.44079 L 56.193819,214.51486 L 64.448933,214.52758 L 64.4639,227.64281 L 75.732628,227.53669 L 85.40329,237.57172 L 85.440283,247.51392 L 129.4952,247.47398 L 129.48017,237.04668 L 139.9879,226.47034 L 151.98159,226.51093 L 180.45012,236.37963 L 180.49406,246.99809 L 190.89186,247.02369 L 201.94119,236.01105 L 213.72344,235.99645 C 219.83644,243.49405 224.80563,249.90212 231.5139,257.3854 C 238.2731,264.92548 246.30496,272.96272 254.43263,280.94664 L 254.53477,325.0152 L 242.4765,349.52025 L 253.57107,349.52272 L 253.57286,368.55629 L 243.52352,368.54078 L 243.51953,392.51995 L 232.48706,392.51062 C 232.48706,392.51062 225.44125,398.80978 222.58439,401.96325 C 219.72752,405.11673 213.49505,413.49097 213.49505,413.49097 L 213.50312,437.557 L 217.64687,450.01166 L 213.39581,469.50596 L 201.41808,469.50296 L 191.50432,479.51952 L 191.49419,470.53205 L 169.4882,446.98801 L 162.00984,446.98526 L 161.99414,437.10089 L 150.95519,425.98236 L 150.97471,414.02217 L 140.95631,403.88526 L 140.93473,392.21346 L 128.99561,392.11875 L 129.00764,402.67158 L 109.06152,402.75725 L 98.870387,392.71381 L 108.97781,382.02459 L 108.92399,348.11168 L 76.968624,347.96209 L 67.003296,325.96815 L 67.05962,313.50776 L 45.529004,313.50331 L 45.500672,290.50692 L 24.531277,290.50335 L 24.551315,280.234 L 14.527864,270.79322 L 14.507169,237.49697 z"
           style="opacity:1;fill:none;fill-opacity:1;fill-rule:nonzero;stroke:#808080;stroke-width:1;stroke-linecap:butt;stroke-linejoin:miter;marker:none;marker-start:none;marker-mid:none;marker-end:none;stroke-miterlimit:4;stroke-dasharray:none;stroke-dashoffset:0;stroke-opacity:1;visibility:visible;display:inline;overflow:visible;enable-background:accumulate" />
      </g>
    </g>
    <g
       inkscape:groupmode="layer"
       id="layer6"
       inkscape:label="Labels BE"
       style="display:inline">
      <text
         xml:space="preserve"
         style="font-size:32px;font-style:normal;font-weight:normal;line-height:100%;fill:#000000;fill-opacity:1;stroke:none;stroke-width:1px;stroke-linecap:butt;stroke-linejoin:miter;stroke-opacity:1;display:inline;enable-background:new;font-family:Bitstream Vera Sans"
         x="108.95313"
         y="382.59375"
         id="text2442"
         sodipodi:linespacing="100%"><tspan
           sodipodi:role="line"
           id="tspan2444"
           x="108.95313"
           y="382.59375"
           style="font-size:48px;font-style:normal;font-variant:normal;font-weight:normal;font-stretch:normal;text-align:start;line-height:100%;writing-mode:lr-tb;text-anchor:start;font-family:DejaVu Sans;-inkscape-font-specification:DejaVu Sans">Be</tspan></text>
      <text
         xml:space="preserve"
         style="font-size:16px;font-style:normal;font-variant:normal;font-weight:normal;font-stretch:normal;text-align:center;line-height:100%;writing-mode:lr-tb;text-anchor:middle;fill:#000000;fill-opacity:1;stroke:none;stroke-width:1px;stroke-linecap:butt;stroke-linejoin:miter;stroke-opacity:1;display:inline;enable-background:new;font-family:DejaVu Sans;-inkscape-font-specification:DejaVu Sans"
         x="132.2343"
         y="285.99985"
         id="text2450"
         sodipodi:linespacing="100%"><tspan
           sodipodi:role="line"
           x="132.2343"
           y="285.99985"
           id="tspan2456">België</tspan><tspan
           sodipodi:role="line"
           x="132.2343"
           y="301.99985"
           id="tspan2463">Belgien</tspan><tspan
           sodipodi:role="line"
           x="132.2343"
           y="317.99985"
           id="tspan2465">Belgique</tspan></text>
    </g>
  </g>
</svg>
